<?xml version="1.0" encoding="UTF-8" standalone="no"?><svg xmlns="http://www.w3.org/2000/svg" xmlns:xlink="http://www.w3.org/1999/xlink" contentScriptType="application/ecmascript" contentStyleType="text/css" height="298px" preserveAspectRatio="none" style="width:465px;height:298px;" version="1.1" viewBox="0 0 465 298" width="465px" zoomAndPan="magnify"><defs><filter height="300%" id="fq0mkne" width="300%" x="-1" y="-1"><feGaussianBlur result="blurOut" stdDeviation="2.0"/><feColorMatrix in="blurOut" result="blurOut2" type="matrix" values="0 0 0 0 0 0 0 0 0 0 0 0 0 0 0 0 0 0 .4 0"/><feOffset dx="4.0" dy="4.0" in="blurOut2" result="blurOut3"/><feBlend in="SourceGraphic" in2="blurOut3" mode="normal"/></filter></defs><g><!--cluster animals--><polygon fill="#FFFFFF" filter="url(#fq0mkne)" points="22,24,85,24,92,46.4883,238,46.4883,238,291,22,291,22,24" style="stroke: #000000; stroke-width: 2.0;"/><line style="stroke: #000000; stroke-width: 2.0;" x1="22" x2="92" y1="46.4883" y2="46.4883"/><text fill="#000000" font-family="sans-serif" font-size="14" font-weight="bold" lengthAdjust="spacingAndGlyphs" textLength="57" x="26" y="39.5352">animals</text><!--cluster animals::extension--><polygon fill="#FFFFFF" filter="url(#fq0mkne)" points="262,151,401,151,408,173.4883,458,173.4883,458,291,262,291,262,151" style="stroke: #000000; stroke-width: 2.0;"/><line style="stroke: #000000; stroke-width: 2.0;" x1="262" x2="408" y1="173.4883" y2="173.4883"/><text fill="#000000" font-family="sans-serif" font-size="14" font-weight="bold" lengthAdjust="spacingAndGlyphs" textLength="133" x="266" y="166.5352">animals::extension</text><!--class animals.Wombat--><rect fill="#FEFECE" filter="url(#fq0mkne)" height="89.1309" style="stroke: #A80036; stroke-width: 1.5;" width="184" x="38" y="186"/><ellipse cx="94.75" cy="205.1328" fill="#ADD1B2" rx="11" ry="11" style="stroke: #A80036; stroke-width: 1.0;"/><path d="M97.2231,211.2759 Q96.6421,211.5747 96.0029,211.7241 Q95.3638,211.8735 94.6582,211.8735 Q92.1514,211.8735 90.8315,210.2217 Q89.5117,208.5698 89.5117,205.4487 Q89.5117,202.3193 90.8315,200.6675 Q92.1514,199.0156 94.6582,199.0156 Q95.3638,199.0156 96.0112,199.165 Q96.6587,199.3145 97.2231,199.6133 L97.2231,202.3359 Q96.5923,201.7549 95.9988,201.4851 Q95.4053,201.2153 94.7744,201.2153 Q93.4297,201.2153 92.7449,202.282 Q92.0601,203.3486 92.0601,205.4487 Q92.0601,207.5405 92.7449,208.6072 Q93.4297,209.6738 94.7744,209.6738 Q95.4053,209.6738 95.9988,209.4041 Q96.5923,209.1343 97.2231,208.5532 Z "/><text fill="#000000" font-family="sans-serif" font-size="12" font-style="italic" lengthAdjust="spacingAndGlyphs" textLength="66" x="113.25" y="202.6016">«caseclass»</text><text fill="#000000" font-family="sans-serif" font-size="12" lengthAdjust="spacingAndGlyphs" textLength="47" x="122.75" y="216.7344">Wombat</text><line style="stroke: #A80036; stroke-width: 1.5;" x1="39" x2="221" y1="224.2656" y2="224.2656"/><text fill="#000000" font-family="sans-serif" font-size="11" lengthAdjust="spacingAndGlyphs" textLength="172" x="44" y="238.9004">«ctor»Wombat (location : String)</text><text fill="#000000" font-family="sans-serif" font-size="11" lengthAdjust="spacingAndGlyphs" textLength="43" x="44" y="268.8105">isSealed</text><line style="stroke: #A80036; stroke-width: 1.0;" x1="39" x2="85" y1="251.6982" y2="251.6982"/><text fill="#000000" font-family="sans-serif" font-size="11" lengthAdjust="spacingAndGlyphs" textLength="90" x="85" y="255.3555">&lt;&lt;scalaclass&gt;&gt;</text><line style="stroke: #A80036; stroke-width: 1.0;" x1="175" x2="221" y1="251.6982" y2="251.6982"/><!--class animals.Animal--><rect fill="#FEFECE" filter="url(#fq0mkne)" height="67.2207" style="stroke: #A80036; stroke-width: 1.5;" width="96" x="104" y="59"/><ellipse cx="130.25" cy="78.1328" fill="#A9DCDF" rx="11" ry="11" style="stroke: #A80036; stroke-width: 1.0;"/><path d="M130.3633,73.731 L129.2095,78.8027 L131.5254,78.8027 Z M128.8691,71.4897 L131.8657,71.4897 L135.2109,83.8828 L132.7622,83.8828 L131.9985,80.8198 L128.7197,80.8198 L127.9727,83.8828 L125.5239,83.8828 Z "/><text fill="#000000" font-family="sans-serif" font-size="12" font-style="italic" lengthAdjust="spacingAndGlyphs" textLength="35" x="148.75" y="75.6016">«trait»</text><text fill="#000000" font-family="sans-serif" font-size="12" font-style="italic" lengthAdjust="spacingAndGlyphs" textLength="39" x="146.75" y="89.7344">Animal</text><line style="stroke: #A80036; stroke-width: 1.5;" x1="105" x2="199" y1="97.2656" y2="97.2656"/><text fill="#000000" font-family="sans-serif" font-size="11" lengthAdjust="spacingAndGlyphs" textLength="84" x="110" y="111.9004">location : String</text><line style="stroke: #A80036; stroke-width: 1.5;" x1="105" x2="199" y1="118.2207" y2="118.2207"/><!--class animals::extension.Olm--><rect fill="#FEFECE" filter="url(#fq0mkne)" height="89.1309" style="stroke: #A80036; stroke-width: 1.5;" width="163" x="278.5" y="186"/><ellipse cx="324.75" cy="205.1328" fill="#ADD1B2" rx="11" ry="11" style="stroke: #A80036; stroke-width: 1.0;"/><path d="M327.2231,211.2759 Q326.6421,211.5747 326.0029,211.7241 Q325.3638,211.8735 324.6582,211.8735 Q322.1514,211.8735 320.8315,210.2217 Q319.5117,208.5698 319.5117,205.4487 Q319.5117,202.3193 320.8315,200.6675 Q322.1514,199.0156 324.6582,199.0156 Q325.3638,199.0156 326.0112,199.165 Q326.6587,199.3145 327.2231,199.6133 L327.2231,202.3359 Q326.5923,201.7549 325.9988,201.4851 Q325.4053,201.2153 324.7744,201.2153 Q323.4297,201.2153 322.7449,202.282 Q322.0601,203.3486 322.0601,205.4487 Q322.0601,207.5405 322.7449,208.6072 Q323.4297,209.6738 324.7744,209.6738 Q325.4053,209.6738 325.9988,209.4041 Q326.5923,209.1343 327.2231,208.5532 Z "/><text fill="#000000" font-family="sans-serif" font-size="12" font-style="italic" lengthAdjust="spacingAndGlyphs" textLength="66" x="343.25" y="202.6016">«caseclass»</text><text fill="#000000" font-family="sans-serif" font-size="12" lengthAdjust="spacingAndGlyphs" textLength="23" x="364.75" y="216.7344">Olm</text><line style="stroke: #A80036; stroke-width: 1.5;" x1="279.5" x2="440.5" y1="224.2656" y2="224.2656"/><text fill="#000000" font-family="sans-serif" font-size="11" lengthAdjust="spacingAndGlyphs" textLength="151" x="284.5" y="238.9004">«ctor»Olm (location : String)</text><text fill="#000000" font-family="sans-serif" font-size="11" lengthAdjust="spacingAndGlyphs" textLength="43" x="284.5" y="268.8105">isSealed</text><line style="stroke: #A80036; stroke-width: 1.0;" x1="279.5" x2="315" y1="251.6982" y2="251.6982"/><text fill="#000000" font-family="sans-serif" font-size="11" lengthAdjust="spacingAndGlyphs" textLength="90" x="315" y="255.3555">&lt;&lt;scalaclass&gt;&gt;</text><line style="stroke: #A80036; stroke-width: 1.0;" x1="405" x2="440.5" y1="251.6982" y2="251.6982"/><path d="M217.78,130.5 C224.66,134.63 231.51,138.84 238,143 C258.88,156.37 281.16,171.8 300.89,185.9 " fill="none" style="stroke: #A80036; stroke-width: 1.0;"/><polygon fill="none" points="213.94,136.37,200.24,120.2,221.03,124.3,213.94,136.37" style="stroke: #A80036; stroke-width: 1.0;"/><path d="M143.53,145.86 C141.39,159.08 139.12,173.13 137.06,185.88 " fill="none" style="stroke: #A80036; stroke-width: 1.0;"/><polygon fill="none" points="136.63,144.7,146.73,126.08,150.45,146.94,136.63,144.7" style="stroke: #A80036; stroke-width: 1.0;"/></g></svg>